<?xml version="1.0" encoding="UTF-8"?>
<svg width="462.91mm" height="495.2mm" version="1.1" viewBox="0 0 1640.2342 1754.6284" xmlns="http://www.w3.org/2000/svg">
 <g transform="translate(1203.2 335.4)">
  <path d="m176.77 1129.9c-2e-5 40.186-11.601 96.026-33.526 132.45-21.925 36.421-44.691 71.332-89.98 92.823-90.834 43.102-275.63 64.046-392.44 64.046s-319.57-7.3692-402.17-64.201c-41.298-28.416-69.938-49.261-81.034-98.315-19.733-37.653-28.111-79.394-28.111-119.58s12.296-77.721 43.723-105.34c33.341-29.301 95.054-37.612 127.33-80.466 50.632-40.972 36.77-95.63 59.894-180.44 41.172-77.592 131.5-149.16 263.03-124.31 125.68-17.849 197.95 17.476 254.95 68.975 55.198 58.718 39.459 140.52 67.813 190.04 45.417 38.813 85.296 77.33 153.99 91.539 47.669 32.645 56.523 92.603 56.523 132.79z"/>
  <path d="m-471.2 16.389c4.2962 40.115 13.202 59.471 26.214 87.554 12.393 24.617 26.798 40.752 27.536 102.96-5.1834 54.248-21.712 82.483-53.587 104.41-30.827 18.516-66.518 31.506-129.94 36.66-28.665-1.3152-64.083-16.591-91.95-35.217-28.653-17.316-50.541-39.032-71.273-69.21-30.552-62.804-30.033-87.738-26.443-157.34 5.2064-28.357 10.134-47.98 18.588-72.451 4.0955-11.855 9.835-23.411 16.406-38.734 6.5707-15.323 17.248-32.434 30.413-52.852 17.077-21.03 24.445-30.25 44.836-50.382-4.8002-62.376 29.002-132.95 36.937-153.83 17.806-30.91 23.993-47.139 35.307-53.34 6.0746 10.077 19.376 23.876 17.403 44.207 2.6779 11.805-14.569 38.669-15.333 55.108 0.0261 20.154 4.1843 43.454 8.4451 66.892 48.098-3.6763 78.074-12.65 114.27 15.973 25.021 32.242 28.825 68.787 25.632 99.151 0.47547 30.626-17.575 47.997-13.467 70.453z"/>
  <path d="m-292.66 16.389c-4.2962 40.115-13.202 59.471-26.214 87.554-12.393 24.617-26.798 40.752-27.536 102.96 5.1833 54.248 21.712 82.483 53.587 104.41 30.827 18.516 66.518 31.506 129.94 36.66 28.665-1.3152 64.083-16.591 91.95-35.217 28.653-17.316 50.541-39.032 71.273-69.21 30.552-62.804 30.033-87.738 26.443-157.34-5.2064-28.357-10.134-47.98-18.588-72.451-4.0955-11.855-9.835-23.411-16.406-38.734-6.5707-15.323-17.248-32.434-30.413-52.852-17.077-21.03-24.445-30.25-44.836-50.382 4.8002-62.376-29.002-132.95-36.937-153.83-17.806-30.91-23.993-47.139-35.307-53.34-6.0746 10.077-19.376 23.876-17.403 44.207-2.6779 11.805 14.569 38.669 15.333 55.108-0.0261 20.154-4.1843 43.454-8.4451 66.892-48.098-3.6763-78.074-12.65-114.27 15.973-25.021 32.242-28.825 68.787-25.632 99.151-0.4755 30.626 17.575 47.997 13.467 70.453z"/>
  <path d="m-919.16 476.97c21.17 34.344 37.55 47.97 61.398 67.7 21.795 16.869 41.748 25.218 69.231 81.027 18.709 51.182 15.967 83.785-3.3426 117.31-19.833 29.997-46.437 57.104-101.44 89.096-26.432 11.171-64.975 12.657-98.149 7.8634-33.319-3.2722-62.43-13.43-94.146-31.723-54.643-43.498-64.922-66.219-91.69-130.57-7.5268-27.831-11.54-47.661-14.461-73.386-1.4153-12.462-1.2184-25.364-1.8953-42.022s1.5807-36.701 4.6577-60.8c6.3422-26.337 9.0159-37.833 18.737-64.788-31.222-54.213-31.146-132.47-32.989-154.73 2.7412-35.567 1.3267-52.877 8.863-63.35 9.8252 6.4736 27.776 13.19 34.761 32.386 7.5054 9.4972 3.524 41.172 9.9224 56.334 8.712 18.174 22.509 37.405 36.457 56.716 41.814-24.052 64.993-45.071 110-34.851 36.476 18.306 55.663 49.64 65.872 78.414 13.632 27.429 4.834 50.885 18.221 69.375z"/>
  <path d="m150.17 510.31c-16.564 36.787-31.05 52.412-52.154 75.052-19.437 19.539-38.147 30.391-58.203 89.279-11.952 53.168-5.0289 85.144 18.443 115.9 23.535 27.189 53.414 50.639 112.08 75.27 27.652 7.6688 66.064 4.1716 98.344-4.8597 32.619-7.5418 60.176-21.369 89.269-43.599 48.577-50.181 55.841-74.039 74.086-141.31 3.8749-28.569 5.2969-48.751 4.8763-74.638-0.20369-12.541-2.0627-25.309-3.5397-41.916-1.4771-16.607-6.3006-36.191-12.46-59.691-9.6857-25.299-13.82-36.354-26.935-61.831 23.97-57.787 13.803-135.38 12.76-157.69-7.3051-34.916-8.135-52.264-16.959-61.678-8.9083 7.6866-25.843 16.662-30.294 36.598-6.2179 10.386 1.815 41.282-2.5746 57.144-6.2955 19.146-17.497 39.996-28.839 60.944-44.566-18.459-70.263-36.313-113.57-20.375-33.811 22.857-48.796 56.404-55.209 86.254-9.9808 28.958 1.7685 51.083-9.1224 71.146z"/>
 </g>
</svg>
