<?xml version='1.0' encoding='utf-8'?>
<svg xmlns="http://www.w3.org/2000/svg" id="svg2719" version="1.1" viewBox="0 0 264.58331 254.36133" height="961.3656" width="999.99994"> <defs id="defs2713"/> <metadata id="metadata2716"> </metadata> <g transform="translate(-204.29907,-173.98701)" id="layer1"> <g transform="matrix(1.8696409,0,0,1.8696409,-7049.2007,-25726.541)" id="g3340"> <path id="path3325" d="m 3938.1285,13853.211 c -0.9295,0 -1.8595,0 -2.7884,0.04 -14.8619,0.577 -29.5042,6.795 -40.3458,18.512 -21.6831,23.435 -20.2528,60.324 3.1819,82.008 23.4344,21.683 60.3263,20.251 82.0099,-3.183 21.6837,-23.435 20.251,-60.325 -3.1839,-82.009 -10.985,-10.163 -24.9275,-15.249 -38.8737,-15.369 z m -0.2024,20.65 c 8.9191,0.08 17.8424,3.383 24.9632,9.971 15.1916,14.057 16.0993,37.452 2.0428,52.643 -14.0562,15.191 -37.4515,16.099 -52.6428,2.043 -15.191,-14.056 -16.0986,-37.45 -2.0426,-52.641 7.0279,-7.596 16.3918,-11.621 25.8966,-11.99 0.594,-0.02 1.1883,-0.03 1.7828,-0.03 z" style="color:#000000;font-style:normal;font-variant:normal;font-weight:normal;font-stretch:normal;font-size:medium;line-height:normal;font-family:sans-serif;font-variant-ligatures:normal;font-variant-position:normal;font-variant-caps:normal;font-variant-numeric:normal;font-variant-alternates:normal;font-feature-settings:normal;text-indent:0;text-align:start;text-decoration:none;text-decoration-line:none;text-decoration-style:solid;text-decoration-color:#000000;letter-spacing:normal;word-spacing:normal;text-transform:none;writing-mode:lr-tb;direction:ltr;text-orientation:mixed;dominant-baseline:auto;baseline-shift:baseline;text-anchor:start;white-space:normal;shape-padding:0;clip-rule:nonzero;display:inline;overflow:visible;visibility:visible;opacity:1;isolation:auto;mix-blend-mode:normal;color-interpolation:sRGB;color-interpolation-filters:linearRGB;solid-color:#000000;solid-opacity:1;vector-effect:none;fill:#5599ff;fill-opacity:1;fill-rule:nonzero;stroke:none;stroke-width:20.78076172;stroke-linecap:round;stroke-linejoin:round;stroke-miterlimit:4;stroke-dasharray:none;stroke-dashoffset:0;stroke-opacity:1;color-rendering:auto;image-rendering:auto;shape-rendering:auto;text-rendering:auto;enable-background:accumulate"/> <path style="fill:none;fill-rule:evenodd;stroke:#5599ff;stroke-width:20.78076363;stroke-linecap:round;stroke-linejoin:miter;stroke-miterlimit:4;stroke-dasharray:none;stroke-opacity:1" d="m 3972.5574,13943.532 38.0808,35.235" id="path3327"/> </g> </g> </svg>